<?xml version="1.0" encoding="UTF-8" standalone="no"?>
<!-- Created with Inkscape (http://www.inkscape.org/) -->

<svg
   width="297mm"
   height="210mm"
   viewBox="0 0 297 210"
   version="1.1"
   id="svg1"
   xml:space="preserve"
   inkscape:version="1.4.3 (0d15f75, 2025-12-25)"
   sodipodi:docname="logowektor.svg"
   xmlns:inkscape="http://www.inkscape.org/namespaces/inkscape"
   xmlns:sodipodi="http://sodipodi.sourceforge.net/DTD/sodipodi-0.dtd"
   xmlns="http://www.w3.org/2000/svg"
   xmlns:svg="http://www.w3.org/2000/svg"><sodipodi:namedview
     id="namedview1"
     pagecolor="#505050"
     bordercolor="#ffffff"
     borderopacity="1"
     inkscape:showpageshadow="0"
     inkscape:pageopacity="0"
     inkscape:pagecheckerboard="1"
     inkscape:deskcolor="#505050"
     inkscape:document-units="mm"
     inkscape:zoom="0.68862935"
     inkscape:cx="427.66112"
     inkscape:cy="212.74144"
     inkscape:window-width="1920"
     inkscape:window-height="991"
     inkscape:window-x="-9"
     inkscape:window-y="-9"
     inkscape:window-maximized="1"
     inkscape:current-layer="layer1" /><defs
     id="defs1" /><g
     inkscape:groupmode="layer"
     id="layer2"
     inkscape:label="tlo"
     style="fill:#f2f2f2" /><g
     inkscape:label="Warstwa 1"
     inkscape:groupmode="layer"
     id="layer1"
     style="display:inline"><path
       style="display:inline;fill:#000000"
       d="m 229.95669,163.35966 c -0.0663,-0.11177 -0.26919,-1.4714 -0.45085,-3.02138 -0.35104,-2.99516 -0.22013,-8.20362 0.30156,-11.99851 0.35941,-2.61442 0.35503,-4.38389 -0.0136,-5.50093 -0.18095,-0.54828 -0.19588,-1.15579 -0.0416,-1.69366 0.25504,-0.88928 0.12858,-3.46957 -0.22469,-4.58479 -0.11619,-0.36678 -0.10687,-3.22428 0.0207,-6.35 0.37045,-9.07584 0.29977,-18.97233 -0.14924,-20.89707 -0.33806,-1.44915 -0.33422,-1.87061 0.0334,-3.66286 0.4739,-2.31019 0.49384,-3.96477 0.304,-25.224872 -0.12276,-13.748146 -0.10524,-14.488847 0.35185,-14.880222 0.26457,-0.226533 0.48104,-0.703672 0.48104,-1.060311 0,-0.990266 0.45751,-1.056532 0.93391,-0.135268 0.35345,0.68349 0.53955,0.798104 1.07691,0.663235 0.42908,-0.107693 1.02888,0.04575 1.76679,0.451991 1.16906,0.643598 1.9685,0.704582 3.14049,0.239565 0.92423,-0.36671 1.19908,-0.05263 0.44904,0.51313 -0.48717,0.367479 -0.53522,0.51925 -0.26677,0.842711 0.49099,0.591606 1.23004,0.267075 2.81989,-1.238269 0.78726,-0.745415 2.18329,-2.070286 3.10228,-2.944158 1.96517,-1.868695 2.98505,-3.384629 2.71818,-4.040253 -0.26516,-0.65142 -0.37094,-3.845179 -0.1378,-4.160471 0.10761,-0.145521 0.25728,-0.517381 0.33261,-0.826355 0.10617,-0.435478 0.0338,-0.534794 -0.3219,-0.441775 -0.35508,0.09286 -0.52572,-0.139146 -0.75443,-1.025729 -0.3006,-1.165251 -0.52906,-1.564828 -2.14399,-3.749832 -0.72956,-0.987087 -1.06768,-1.232351 -1.69896,-1.232351 -0.43347,0 -0.9761,0.162938 -1.20584,0.362084 -0.64884,0.562439 -2.53043,0.709199 -3.18795,0.248653 -0.45022,-0.315346 -0.63742,-0.327643 -0.9565,-0.06283 -0.28396,0.23566 -0.47791,0.248065 -0.68234,0.04364 -0.15708,-0.157086 -0.44969,-0.222645 -0.65024,-0.145688 -0.25301,0.09709 -0.36463,-0.07377 -0.36463,-0.558146 0,-0.910642 -0.56433,-1.10089 -1.64353,-0.554074 -1.08595,0.550231 -3.10105,1.553793 -3.22818,1.426664 -0.0523,-0.05228 -0.1663,-2.12226 -0.20937,-4.247764 -0.0689,-3.398787 -0.0217,-3.927156 0.39142,-4.383969 0.51056,-0.564577 4.78184,-2.957235 6.27716,-3.516295 1.53209,-0.572811 4.24794,-2.436414 6.29791,-4.3216 2.69756,-2.480716 3.96517,-2.900492 4.54339,-1.50456 0.18648,0.450217 0.22786,0.923794 0.0982,1.124479 -0.19203,0.297318 -0.56901,8.979875 -0.71007,16.35399 l -0.043,2.248959 0.89844,0.08578 c 0.49413,0.04718 0.7181,-0.101954 1.10757,-0.04126 5.57141,0.868224 -6.54251,-0.06844 4.1773,-0.148388 3.01385,-0.02248 3.29131,0.01384 2.8281,0.370203 -0.28247,0.217318 -0.60989,0.395124 -0.7276,0.395124 -0.11771,0 -0.21401,0.229483 -0.21401,0.509963 0,0.28048 -0.2735,0.726964 -0.60776,0.992188 -0.95552,0.758156 -1.1062,1.153382 -0.41065,1.077141 0.39251,-0.04302 0.63316,0.09429 0.69623,0.397271 0.0665,0.31963 -0.0686,0.46302 -0.43656,0.46302 -0.73506,0 -0.96026,0.473877 -0.47945,1.00886 0.35971,0.40023 0.34624,0.604585 -0.1304,1.977788 -0.43116,1.242201 -0.46896,1.606857 -0.20015,1.930753 0.2656,0.320027 0.37463,0.331159 0.54914,0.05606 0.11976,-0.18879 0.21957,-0.220917 0.22179,-0.0714 0.002,0.149522 -0.18887,0.547294 -0.42466,0.883938 -0.64366,0.918944 -0.0615,1.886913 1.13488,1.886913 0.48474,0 0.88134,0.105833 0.88134,0.235185 0,0.129352 -0.20836,0.218649 -0.46303,0.198438 -0.33984,-0.02697 -0.46024,0.156812 -0.45259,0.690856 l 0.0104,0.727604 h -3.76512 c -2.36557,0 -3.82953,0.104199 -3.93838,0.280318 -0.0953,0.154174 -0.29067,3.99394 -0.43419,8.532812 -0.14352,4.538872 -0.32029,9.634471 -0.39283,11.323554 -0.085,1.978767 0.0169,4.288137 0.28629,6.492962 0.49696,4.066644 0.51586,6.693355 0.0666,9.251913 -0.33616,1.914355 -0.2375,4.474665 0.36076,9.362185 0.21401,1.74842 0.17943,3.33837 -0.1554,7.14375 -0.27855,3.16582 -0.37469,6.01628 -0.27218,8.06979 0.0872,1.74625 0.22957,5.13953 0.31644,7.54062 0.13432,3.71274 0.25268,4.61765 0.79141,6.05078 0.34841,0.92683 0.93693,2.07058 0.8627,2.36003 -0.11037,0.4304 -0.80059,1.07576 -1.49892,1.88742 -0.69833,0.81165 -1.55096,1.89245 -1.89472,2.40177 -0.74895,1.10964 -1.34341,1.73152 -1.66929,2.16535 -3.51304,4.67683 -1.59847,2.21454 -2.28372,3.12862 -3.87046,5.16299 0.45289,-0.81511 -3.35071,4.25039 -6.24729,8.31991 -2.97802,4.24781 -3.53034,5.02742 -0.48645,0.68665 -2.23265,2.81644 -2.78436,3.45993 -1.09046,1.27186 -0.97065,1.54311 -1.1117,1.30535 z M 62.868969,143.28363 c -0.902722,-0.67083 -2.115283,-1.32618 -2.694578,-1.45633 -0.579295,-0.13016 -1.835114,-0.77193 -2.790708,-1.42616 -0.980082,-0.67099 -2.047321,-1.19203 -2.448324,-1.19531 -0.390985,-0.003 -1.2121,-0.23335 -1.824701,-0.51146 -1.480381,-0.67206 -5.089995,-2.8521 -5.809961,-3.50895 -0.509857,-0.46516 -1.91265,-1.23389 -5.90851,-3.23786 -0.654844,-0.32841 -2.024063,-0.92482 -3.042708,-1.32536 -1.018646,-0.40053 -2.060443,-0.91241 -2.315105,-1.13749 -0.679433,-0.60053 -0.576479,-2.0101 0.241452,-3.30579 0.38746,-0.61378 0.719768,-1.53414 0.738463,-2.04526 0.0187,-0.51112 0.05887,-2.25963 0.08928,-3.88557 0.05025,-2.68693 0.112794,-3.0244 0.686495,-3.70417 0.948988,-1.12443 6.606146,-4.83833 8.29492,-5.44558 0.910562,-0.32742 2.203696,-1.14145 3.355314,-2.11218 2.617535,-2.2064 4.087186,-3.18227 4.534151,-3.01075 0.513844,0.19718 0.505634,2.25077 -0.01195,2.98973 -0.216851,0.3096 -0.596504,1.89653 -0.843674,3.52652 -0.699999,4.61623 0.01172,8.89524 1.581403,9.50776 2.586724,1.00938 4.197184,1.74979 5.212795,2.39657 0.654844,0.41704 1.924924,1.12162 2.8224,1.56575 0.897476,0.44413 2.379931,1.40794 3.294343,2.14181 1.09225,0.87659 1.803151,1.27337 2.072391,1.15669 1.186249,-0.51408 1.917026,-0.41971 3.049902,0.39386 1.319616,0.94767 1.634075,1.01008 1.830497,0.36327 0.07733,-0.25466 0.118413,-3.67771 0.09129,-7.60677 -0.04368,-6.32575 0.003,-7.24107 0.408034,-7.99369 0.370135,-0.68785 0.408652,-1.06629 0.201966,-1.98438 -0.333459,-1.4812 -0.79783,-5.5742 -0.83754,-7.38213 -0.05675,-2.58347 -0.222257,-2.93633 -1.610206,-3.4329 -0.684053,-0.24474 -1.842191,-0.81321 -2.57364,-1.26328 -0.73145,-0.450065 -1.750321,-0.99396 -2.264158,-1.208655 -0.513837,-0.214695 -1.590111,-0.82569 -2.39172,-1.357768 -0.801609,-0.532078 -1.84223,-1.064139 -2.312492,-1.182358 -0.470262,-0.118219 -1.888151,-0.500967 -3.150864,-0.85055 -1.955044,-0.541256 -2.387072,-0.584992 -2.910417,-0.294636 -0.876382,0.486225 -1.207624,0.447218 -3.06197,-0.360579 -1.253419,-0.546019 -1.653645,-0.851131 -1.653645,-1.260652 0,-0.335887 1.062846,-1.589834 2.809425,-3.314562 1.545185,-1.525852 3.164277,-3.310057 3.597983,-3.964901 0.433707,-0.654844 2.238181,-2.619375 4.009942,-4.365625 1.771762,-1.74625 3.678578,-3.684734 4.237368,-4.307742 0.69741,-0.777558 1.160745,-1.086796 1.477653,-0.986214 0.569072,0.180617 0.947635,-0.261213 1.188345,-1.386948 0.101148,-0.473039 0.591147,-1.347507 1.088886,-1.943263 0.497739,-0.595755 0.904981,-1.163405 0.904981,-1.261445 0,-0.09804 0.475686,-0.753901 1.05708,-1.457468 0.581394,-0.703567 1.002426,-1.367646 0.935627,-1.47573 -0.0668,-0.108084 -1.346158,-0.824814 -2.843018,-1.592734 -1.496861,-0.76792 -3.350732,-1.864775 -4.119714,-2.437456 -0.969828,-0.722257 -2.023541,-1.204133 -3.439583,-1.572968 -1.384956,-0.360736 -2.872017,-1.032948 -4.624278,-2.09036 -1.420564,-0.857248 -2.785659,-1.593291 -3.033544,-1.635652 -0.61314,-0.104779 -0.849563,1.518621 -0.932826,6.405272 -0.05033,2.953782 0.05054,4.388488 0.438396,6.235797 0.785953,3.743344 0.160061,4.962875 -1.64691,3.20895 -1.332961,-1.29383 -3.962131,-2.830164 -4.843336,-2.830164 -1.180481,0 -2.154279,-0.49139 -3.179542,-1.604434 -0.670685,-0.728108 -1.099758,-0.994352 -1.41038,-0.875156 -0.275357,0.105665 -0.397192,0.359635 -0.31793,0.662736 0.108541,0.41506 0.01935,0.465142 -0.573995,0.322304 -0.884897,-0.213023 -3.427922,-1.508812 -4.18755,-2.133751 -0.647187,-0.532434 -0.689128,-0.757198 -0.646465,-3.464485 l 0.03047,-1.933411 1.96064,-1.850748 c 2.552741,-2.409663 4.273683,-3.622798 7.060738,-4.977292 2.198608,-1.068511 4.267014,-2.740544 8.176539,-6.609652 3.430189,-3.394728 4.815102,-4.523611 5.549565,-4.523611 0.409958,0 2.63415,0.942959 4.942649,2.095463 2.308499,1.152504 4.8431,2.350024 5.632446,2.661156 0.789347,0.311131 1.823125,0.906317 2.297286,1.322636 1.561081,1.370648 4.179987,2.641733 6.482025,3.146049 2.683089,0.587794 4.721242,1.576922 6.330244,3.072106 1.383096,1.285258 3.701082,2.254674 5.391189,2.254674 0.704988,0 1.370387,0.179516 1.716245,0.46302 l 0.564857,0.463021 -0.966235,1.455209 c -0.53143,0.800364 -1.416833,1.931458 -1.967561,2.513541 -0.550729,0.582084 -1.17333,1.475052 -1.383558,1.984375 -0.608902,1.475197 -5.107297,7.3221 -7.63353,9.921875 -4.103747,4.223211 -7.64104,8.092716 -7.64104,8.358665 0,0.142504 0.543153,0.491921 1.207007,0.776482 1.083056,0.464252 3.185941,1.687597 7.516009,4.372409 0.819074,0.507858 1.967207,0.964745 2.645833,1.052881 0.659373,0.08563 2.181549,0.456936 3.382614,0.825113 1.76114,0.539864 2.212807,0.785173 2.333883,1.267577 0.08257,0.32899 -0.05362,2.014905 -0.302656,3.746477 -0.683711,4.753982 -0.726083,5.974722 -0.338129,9.741392 0.196065,1.9036 0.373272,5.60421 0.393795,8.22359 0.02125,2.71188 0.180758,5.40684 0.370458,6.25896 0.320693,1.44054 0.306526,1.54188 -0.379087,2.71179 -0.710382,1.21218 -2.440394,2.66455 -4.616953,3.87601 -0.631776,0.35164 -1.28662,0.89476 -1.455208,1.20694 -0.506092,0.93715 -3.108792,2.9925 -4.835515,3.81861 -0.890216,0.4259 -1.776061,0.96413 -1.968544,1.19605 -0.192484,0.23193 -1.021394,0.76063 -1.842022,1.17488 -1.088592,0.54952 -1.895427,1.25243 -2.983788,2.59948 -0.820455,1.01546 -2.061155,2.30032 -2.757112,2.85526 -0.695957,0.55493 -1.768731,1.45904 -2.383944,2.00914 -1.559649,1.39456 -2.407764,1.35342 -4.524441,-0.21951 z m 84.978951,-0.0145 c -1.89215,-1.28405 -3.72911,-2.88606 -8.0329,-7.00547 -0.51052,-0.48865 -1.3227,-1.34877 -1.80485,-1.91138 l -0.87664,-1.02293 -4.41286,4.34666 c -4.65706,4.58719 -6.03697,5.65496 -7.004,5.41965 -1.78626,-0.43467 -4.10823,-1.46021 -7.55954,-3.3388 -2.12973,-1.15925 -4.11036,-2.19533 -4.4014,-2.30241 -0.29104,-0.10708 -2.37438,-1.19788 -4.62963,-2.424 -2.25525,-1.22613 -5.17228,-2.76428 -6.48229,-3.41812 -2.773762,-1.3844 -4.101624,-2.31856 -4.101624,-2.88552 0,-0.22207 0.370341,-0.7741 0.82298,-1.22674 1.336514,-1.33652 1.616894,-2.49644 1.709894,-7.07381 0.0458,-2.25558 0.1446,-4.69636 0.2195,-5.42396 0.1493,-1.45041 0.41452,-4.45584 0.46697,-5.29167 0.0183,-0.29104 0.0123,-1.00542 -0.0133,-1.5875 -0.13732,-3.12606 0.16903,-9.904338 0.49392,-10.928703 0.30585,-0.964296 0.30533,-1.350059 -0.003,-2.513542 -0.27056,-1.019703 -0.34578,-2.914122 -0.29149,-7.340282 0.0403,-3.281224 -0.0597,-8.162786 -0.22214,-10.847917 -0.54621,-9.029608 -0.97382,-10.866614 -2.945889,-12.655598 -0.712486,-0.646339 -1.295429,-1.313839 -1.295429,-1.483334 0,-0.51237 1.09838,-1.36545 2.831478,-2.199124 0.90246,-0.434115 2.50981,-1.497993 3.57187,-2.364172 1.06207,-0.866179 2.88353,-2.155485 4.04769,-2.865124 1.16417,-0.70964 3.40269,-2.160339 4.9745,-3.223777 1.5718,-1.063437 2.97164,-1.863185 3.11073,-1.777217 0.50385,0.311393 1.03012,1.687464 1.60876,4.206502 0.54878,2.389029 0.56386,2.684719 0.21439,4.20395 -0.42769,1.859268 -0.43031,2.133187 -0.11713,12.217505 0.36496,11.751774 0.1385,21.68942 -0.56864,24.952397 -0.24615,1.13586 -0.34258,2.282063 -0.23372,2.778125 0.10192,0.464463 0.23253,3.749871 0.29023,7.300901 0.0577,3.55103 0.23479,7.17265 0.39353,8.04805 0.15874,0.87541 0.2545,2.92801 0.2128,4.56134 -0.0862,3.37439 -0.0217,3.52776 1.87553,4.46571 0.66198,0.32727 3.47866,1.80389 6.25928,3.28138 2.78062,1.47749 5.4,2.74665 5.82084,2.82037 0.65969,0.11554 1.03009,-0.11226 2.68731,-1.65275 2.24377,-2.08573 2.04633,-0.97864 1.82862,-10.25344 -0.11381,-4.84835 -0.056,-7.02486 0.24455,-9.20378 0.29957,-2.17203 0.32761,-3.21074 0.11737,-4.34807 -0.43609,-2.359 -0.32088,-5.009889 0.34602,-7.96195 l 0.61637,-2.728385 -0.55049,-0.975782 c -0.51808,-0.918345 -0.56012,-1.513094 -0.71405,-10.103907 -0.172,-9.599198 -0.44545,-13.062753 -1.30434,-16.520687 -0.65901,-2.653177 -0.65512,-2.750361 0.11777,-2.944344 0.35178,-0.08829 1.10769,-0.715651 1.67979,-1.394132 0.5721,-0.678481 1.38561,-1.406143 1.80779,-1.617026 0.42219,-0.210883 1.1248,-0.640462 1.56136,-0.954621 0.43656,-0.314159 1.44859,-0.899064 2.24896,-1.299789 0.80036,-0.400726 1.83422,-1.012931 2.29745,-1.360455 0.46323,-0.347524 0.93948,-0.635953 1.05833,-0.640952 0.11885,-0.005 0.93047,-0.539959 1.80359,-1.1888 2.84201,-2.111963 4.64986,-3.265472 5.61926,-3.585405 0.8401,-0.277257 0.9943,-0.255754 1.32072,0.184172 0.20326,0.273944 0.31398,0.795737 0.24603,1.159539 -0.42725,2.28754 -1.24626,5.833319 -1.47221,6.373633 -0.1467,0.350804 -0.39019,1.82845 -0.5411,3.283659 -0.15091,1.455208 -0.36769,2.98303 -0.48174,3.39516 -0.11404,0.41213 -0.0484,2.674318 0.14596,5.027083 0.19433,2.352766 0.28751,5.419264 0.20709,6.81444 -0.10221,1.773024 -0.0348,2.927975 0.2239,3.836458 0.54909,1.928217 0.74952,5.322052 0.40489,6.856025 -0.16346,0.727604 -0.40665,4.656666 -0.5404,8.73125 -0.13376,4.074583 -0.31229,8.298326 -0.39674,9.386086 -0.0888,1.14419 -0.0319,2.3839 0.13517,2.94138 0.20173,0.67333 0.21235,1.90037 0.0353,4.07312 -0.19435,2.38453 -0.16129,3.98117 0.14179,6.84821 0.21738,2.05629 0.46531,4.6912 0.55096,5.85537 l 0.15573,2.11667 3.20813,3.11009 3.20814,3.11009 -1.20255,1.12324 c -0.66141,0.61778 -2.24506,2.00449 -3.51923,3.08156 -1.4056,1.18817 -2.9413,2.81802 -3.90494,4.14435 -0.87355,1.20232 -1.75335,2.24939 -1.95511,2.32681 -0.20176,0.0774 -0.81533,-0.16358 -1.36348,-0.53556 z m 17.03853,-1.09203 -2.05052,-0.0773 v -0.86321 c 0,-0.62098 0.26538,-1.15293 0.94573,-1.8957 1.61539,-1.7636 2.47154,-4.46423 2.8928,-9.12508 0.0855,-0.94589 0.26346,-5.58932 0.39549,-10.31875 0.13202,-4.72943 0.37229,-9.39301 0.53392,-10.36351 0.22131,-1.32884 0.21566,-2.14549 -0.0229,-3.30729 -0.21494,-1.0468 -0.35247,-6.305862 -0.42783,-16.35941 -0.0941,-12.554313 -0.1875,-15.402454 -0.6117,-18.653124 -0.58643,-4.493929 -0.99946,-5.505606 -2.90313,-7.110802 -1.9179,-1.617197 -1.7943,-1.945554 1.31428,-3.491601 1.41038,-0.70145 3.35806,-1.961638 4.43777,-2.871328 1.05833,-0.891674 2.51734,-1.945563 3.24226,-2.341976 1.41123,-0.771712 4.00389,-2.887431 7.65097,-6.243489 1.24509,-1.145735 2.78053,-2.438751 3.41209,-2.873369 1.64704,-1.133433 1.86017,-0.788619 1.26941,2.053727 -0.25769,1.239859 -0.53015,3.352704 -0.60547,4.69521 -0.0753,1.342506 -0.30551,2.889813 -0.51156,3.438461 -0.23044,0.613579 -0.37464,2.002637 -0.37464,3.608793 0,1.436188 -0.18908,3.60667 -0.42019,4.823292 -0.2311,1.216622 -0.35562,2.569228 -0.27671,3.00579 0.0789,0.436563 0.27709,1.508125 0.4404,2.38125 0.1633,0.873125 0.28287,3.170366 0.26571,5.104979 -0.0172,1.934613 0.0981,4.462239 0.25624,5.616947 0.23032,1.682184 0.21368,2.350342 -0.0837,3.361687 -0.31596,1.074378 -0.31914,2.039158 -0.0214,6.482903 0.1924,2.871375 0.52076,5.875287 0.72969,6.67536 0.30529,1.169068 0.33424,2.273907 0.14748,5.62723 -0.12781,2.29491 -0.36521,4.97847 -0.52756,5.96347 -0.16235,0.985 -0.30173,4.08063 -0.30973,6.87917 -0.008,2.79854 -0.12204,5.38017 -0.25342,5.73696 -0.13137,0.35679 -1.25842,1.70634 -2.50455,2.999 -1.57377,1.63254 -2.18135,2.43463 -1.98953,2.62645 0.22946,0.22946 5.67855,0.0582 11.42647,-0.35915 0.39239,-0.0285 3.93603,-0.0124 7.01146,0.0318 0.87312,0.0126 3.27735,0.19537 5.34272,0.40628 l 3.75521,0.38346 1.84564,-0.28013 c 0.84224,-0.12783 0.80644,-0.0775 2.58519,-0.31667 2.92399,-2.10854 1.56296,-1.26204 5.34916,-3.81213 2.27604,-1.53297 3.50553,-2.08603 3.0697,-1.38084 -0.097,0.15691 -0.5137,1.45758 -0.92606,2.89038 -0.41236,1.4328 -0.9779,3.06059 -1.25677,3.61732 -0.27886,0.55672 -0.76789,1.84566 -1.08672,2.8643 -0.31884,1.01865 -1.55621,3.75709 -2.74972,6.08542 l -2.17002,4.23333 -1.32292,-0.0386 c -0.7276,-0.0212 -3.10885,-0.083 -5.29166,-0.1372 -2.18281,-0.0542 -4.10289,-0.18367 -4.26683,-0.2876 -0.16394,-0.10393 0.45494,-0.011 -1.71979,0.23377 -1.7672,0.19118 -1.87525,0.37267 -3.14151,0.23289 -0.94588,-0.10441 -3.98198,-0.21127 -6.74687,-0.23747 -4.55248,-0.0431 -5.05186,-0.0421 -6.68946,0.002 -1.8965,0.051 -1.61529,0.0387 -3.00582,0.0839 -1.11854,0.0364 -3.56193,0.016 -5.88665,0.016 -0.94723,0 -2.29364,0.11049 -2.99203,0.24553 -1.85143,0.35798 -2.87724,0.42515 -5.1724,0.33865 z m 37.3724,-72.973879 c 0,-0.232669 0.16833,-0.798216 0.37406,-1.256771 0.20573,-0.458555 0.50286,-1.250455 0.6603,-1.759777 0.26878,-0.869524 0.55961,-1.403529 1.50282,-1.200111 1.12838,0.243352 1.21195,0.36901 1.28266,0.73617 0.0977,0.507369 -0.93459,1.982837 -2.05373,3.17592 -0.75365,0.803441 -1.76611,0.978042 -1.76611,0.304569 z m 4.49792,-3.248735 c 0,-0.392296 0.75333,-0.882357 1.06257,-0.691233 0.19385,0.119806 0.13105,0.30251 -0.18684,0.54353 -0.55705,0.422344 -0.87573,0.476094 -0.87573,0.147703 z m 12.64197,-2.379653 c -1.97326,-0.160655 -2.38629,-0.467063 -1.21261,-0.899564 0.24703,-0.09103 0.57904,-0.647894 0.7378,-1.237471 0.15876,-0.589577 0.40312,-1.071959 0.54303,-1.071959 0.39939,0 0.29833,-0.571238 -0.19811,-1.119798 -0.27317,-0.301848 -0.35,-0.572249 -0.19386,-0.682292 0.39317,-0.277098 0.89772,-2.501852 0.66266,-2.921893 -0.11645,-0.208073 -0.0394,-0.705885 0.17614,-1.137921 0.53913,-1.08072 0.12079,-2.102417 -1.44091,-3.519072 l -1.26507,-1.147583 1.29422,-0.195337 c 1.33234,-0.201089 3.27209,-0.07602 7.46775,0.481513 2.39707,0.318527 2.64822,0.137708 2.41098,0.777912 -0.13129,0.354302 -0.41175,0.999527 -0.33272,1.205546 0.0799,0.208236 -0.13895,0.596938 -0.49283,0.875299 -0.73502,0.578169 -1.01697,1.973467 -0.99458,4.921878 0.0159,2.089249 0.77254,3.320886 1.7339,4.55839 0.31719,0.408297 0.68721,0.736426 0.68721,0.852529 0,0.116104 -0.62508,0.199249 -1.38907,0.184769 -0.76398,-0.01448 -2.46062,0.0339 -3.77031,0.107506 -1.30969,0.07361 -3.30033,0.05901 -4.42365,-0.03245 z m 44.37573,-10.08816 c -0.21577,-0.349122 0.1006,-0.844569 0.41516,-0.65016 0.32137,0.198616 0.31928,0.914743 -0.003,0.914743 -0.13693,0 -0.32255,-0.119062 -0.41249,-0.264583 z m 7.90859,-2.594385 -1.57982,-1.670125 1.47644,-0.439281 c 2.14603,-0.638503 2.91138,-0.916454 3.31826,-0.578774 0.41261,0.342435 0.28628,0.753544 -0.87681,2.853388 l -0.85153,1.52735 z"
       id="path1"
       sodipodi:nodetypes="cssssssssssssssssssssssssssssssssssssssscscsssssssssssssscssssscsssscssssssssssssssccssscsssssssssssssssssssssscsssssssssssssssssssssssssssssssssssscssssssssssscssssssssssssssssssssssssscsscssssssssssccscccsssssssssssssscsssssssscsssssssssssssssssssssssccsscccssssccccssssssssssssssssssssscccssssssssscscscssssssccsscssssssscsssssssssssssssssssscsssssssssssscssccccssscc"
       inkscape:label="napis" /><g
       id="g1"
       inkscape:label="red dots"><path
         style="display:inline;fill:#7a100b"
         d="m 258.87968,66.173646 c 0,-0.857594 -0.0752,-1.047909 -0.33073,-0.836608 -0.48175,0.398425 -1.74336,0.07765 -1.9232,-0.488986 -0.1941,-0.611551 -2.07511,-0.535859 -2.41804,-0.663793 -0.21162,-0.07894 -0.33804,-0.293451 -0.21434,-0.570422 0.13404,-0.300113 0.27661,-0.09755 0.26653,-0.800632 -0.008,-0.534044 0.11275,-0.717828 0.45259,-0.690856 0.25467,0.02021 0.46303,-0.06909 0.46303,-0.198438 0,-0.129352 -0.3966,-0.235185 -0.88134,-0.235185 -1.19635,0 -1.77854,-0.967969 -1.13488,-1.886913 0.23579,-0.336644 0.42689,-0.734416 0.42466,-0.883938 -0.002,-0.149521 -0.10203,-0.117394 -0.22179,0.0714 -0.17451,0.275098 -0.28354,0.263966 -0.54914,-0.05606 -0.26881,-0.323896 -0.23101,-0.688552 0.20015,-1.930753 0.47664,-1.373203 0.49011,-1.577558 0.1304,-1.977788 -0.48081,-0.534983 -0.25561,-1.00886 0.47945,-1.00886 0.36791,0 0.5031,-0.14339 0.43656,-0.46302 -0.0631,-0.30298 -0.30372,-0.440295 -0.69623,-0.397271 -0.69555,0.07624 -0.54487,-0.318985 0.41065,-1.077141 0.33426,-0.265224 0.60776,-0.711708 0.60776,-0.992188 0,-0.28048 0.11213,-0.509963 0.24918,-0.509963 0.13706,0 0.94073,-0.606202 1.78594,-1.347115 l 1.53675,-1.347116 0.49471,0.658914 c 0.47571,0.633599 0.53162,0.644238 1.45521,0.276922 1.59768,-0.6354 1.96179,-0.796355 3.4309,-1.516603 1.5356,-0.752852 2.28989,-0.723186 3.52357,0.138582 0.38626,0.26982 0.94906,0.490583 1.25067,0.490583 0.3016,0 0.74274,0.296653 0.98031,0.659228 0.28693,0.437912 0.62208,0.628515 0.99829,0.567743 0.31149,-0.05032 0.43932,-0.04478 0.28406,0.0123 -0.15525,0.05708 0.46983,0.859596 1.38907,1.783364 1.77612,1.784877 2.0711,2.644507 1.27053,3.702533 -0.28038,0.370544 -0.3067,0.600574 -0.0976,0.85258 0.30472,0.367163 -0.19624,2.98613 -0.62998,3.293524 -0.1208,0.08561 -0.0354,0.308544 0.18977,0.495418 0.51715,0.429194 0.52167,0.910756 0.0125,1.333311 -0.21828,0.181157 -0.39687,0.575548 -0.39687,0.876424 0,0.660945 -1.86675,2.412385 -3.0136,2.827451 -0.45257,0.163793 -1.29911,0.526044 -1.88119,0.805001 -1.19176,0.571138 -2.93796,1.141008 -4.86342,0.797658 l -1.24199,-0.221473 -1.10643,0.509104 c -0.46635,0.214582 -0.42628,0.925132 -0.67623,0.973268 -0.36143,0.0696 -0.44631,-0.12517 -0.44631,-1.02418 z"
         id="path198"
         sodipodi:nodetypes="csssscsssscssssssssssscsssssssssssssssssscsscc" /><path
         style="display:inline;fill:#7a100b"
         d="m 237.58559,67.060419 c -0.33181,-0.258063 -0.13635,-0.475232 0.35082,-0.842711 0.75004,-0.565756 0.47519,-0.87984 -0.44904,-0.51313 -1.17199,0.465017 -1.97143,0.404033 -3.14049,-0.239565 -0.73791,-0.40624 -1.33771,-0.559684 -1.76679,-0.451991 -0.53736,0.134869 -0.72346,0.02025 -1.07691,-0.663235 -0.47233,-0.913382 -0.93391,-0.857146 -0.93391,0.11378 0,0.34482 -0.20836,0.836498 -0.46302,1.092618 -0.44145,0.443971 -0.46677,0.415011 -0.54335,-0.621418 -0.0601,-0.813712 -0.33315,-1.37519 -1.08567,-2.232712 -1.55007,-1.766351 -1.89988,-2.641552 -1.9164,-4.794728 -0.0226,-2.951286 0.25911,-4.346756 0.99441,-4.925144 0.35741,-0.28114 0.57299,-0.666407 0.49158,-0.878545 -0.0797,-0.207803 -0.0269,-0.688407 0.11742,-1.068008 0.21492,-0.565286 0.18097,-0.711628 -0.18764,-0.808685 -0.32296,-0.08504 -0.28195,-0.127168 0.14527,-0.149194 0.43414,-0.02238 0.59531,-0.193854 0.59531,-0.633349 0,-0.759428 0.70854,-1.372564 2.16752,-1.875678 0.62688,-0.216171 1.53128,-0.591408 2.00979,-0.83386 1.0792,-0.546816 1.64353,-0.356568 1.64353,0.554074 0,0.484372 0.11162,0.655235 0.36463,0.558146 0.20055,-0.07696 0.49316,-0.0114 0.65024,0.145688 0.20443,0.204425 0.39838,0.19202 0.68234,-0.04364 0.31908,-0.264812 0.50628,-0.252515 0.9565,0.06283 0.65752,0.460546 2.53911,0.313786 3.18795,-0.248653 0.22974,-0.199146 0.77237,-0.362084 1.20584,-0.362084 0.63128,0 1.01027,0.410814 2.0046,1.13047 2.36206,1.709559 2.8622,0.818644 3.1628,1.983895 0.22871,0.886583 0.16163,0.948782 0.51671,0.855927 0.35571,-0.09302 0.45886,2.182609 0.25398,2.581276 -0.21114,0.410855 0.28441,0.850636 0.1768,0.996157 -0.23314,0.315292 -0.94241,3.339249 -1.11874,3.956709 -0.19437,0.680649 0.0799,2.824045 -1.83721,5.269066 -0.78249,0.997948 -2.69924,1.190172 -3.77466,1.791506 -1.91099,1.068549 -2.56121,1.734277 -3.16808,1.262282 z"
         id="path196"
         sodipodi:nodetypes="ssssssssssssssssssssssssssssssssssss" /><path
         style="display:inline;fill:#7a100b"
         d="m 205.59954,66.80273 c 0.64447,-1.122917 0.35872,-1.683316 -0.76531,-1.50091 -0.75218,0.122061 -0.9625,0.03693 -1.34285,-0.543558 -0.24804,-0.378557 -0.65987,-0.688286 -0.91517,-0.688286 -0.79118,0 -1.64028,-0.777028 -1.64028,-1.501056 0,-0.582602 0.0939,-0.65934 0.67195,-0.548849 0.42515,0.08127 0.63489,0.01972 0.57107,-0.167593 -0.0555,-0.162824 -0.40994,-0.296044 -0.78768,-0.296044 -0.37774,0 -0.93701,-0.26789 -1.24283,-0.595312 l -0.55604,-0.595313 0.53948,-0.579057 c 0.62015,-0.665652 0.70784,-1.129667 0.17484,-0.925134 -0.79373,0.304581 -0.9105,-0.380349 -0.33568,-1.969007 0.47546,-1.314064 0.50784,-1.607329 0.19873,-1.799758 -0.51758,-0.322212 -0.15829,-1.077044 0.51268,-1.077044 0.39068,0 0.5281,-0.138178 0.46048,-0.46302 -0.0621,-0.298329 -0.30428,-0.440603 -0.68086,-0.399995 -0.79726,0.08597 -0.73007,-0.208795 0.21837,-0.958028 0.54162,-0.427861 0.74983,-0.782307 0.648,-1.10314 -0.10368,-0.326669 0.0226,-0.527528 0.40886,-0.65011 0.3074,-0.09756 1.17154,-0.761726 1.92033,-1.475917 l 1.36143,-1.29853 0.40097,0.660828 c 0.58537,0.964737 0.56777,0.968444 4.71017,-0.992412 1.67357,-0.792202 2.13557,-0.798302 3.30162,-0.04359 0.54259,0.351177 1.2787,0.638503 1.63582,0.638503 0.39996,0 0.70911,0.188434 0.80504,0.490687 0.0856,0.269878 1.0506,1.156592 2.0636,2.014501 2.12731,1.80161 2.57906,2.862491 1.97437,4.074623 -0.21346,0.427891 -0.28928,0.923841 -0.173,1.131622 0.23506,0.420041 -0.26949,2.644795 -0.66266,2.921893 -0.15614,0.110043 -0.0793,0.380444 0.19386,0.682292 0.49644,0.54856 0.5975,1.119798 0.19811,1.119798 -0.13991,0 -0.38427,0.482382 -0.54303,1.071959 -0.15876,0.589577 -0.46277,1.138777 -0.6756,1.220445 -0.21282,0.08167 -0.75626,0.493474 -1.20764,0.915126 -0.45138,0.421652 -1.13421,0.829497 -1.51741,0.906322 -0.3832,0.07682 -1.11451,0.360303 -1.62515,0.629951 -0.7273,0.384065 -1.44375,0.481303 -3.30729,0.448876 -1.30838,-0.02277 -2.53291,-0.139121 -2.72118,-0.258564 -0.42331,-0.268551 -1.18614,0.314212 -1.01049,0.771958 0.0696,0.181294 -0.1036,0.537859 -0.38483,0.792367 -0.28123,0.254507 -0.51132,0.370178 -0.51132,0.257045 0,-0.113132 -0.184,-0.05299 -0.40888,0.133646 -0.33343,0.276721 -0.32505,0.193273 0.0454,-0.45221 z"
         id="path194"
         sodipodi:nodetypes="ssssssssscssssssssssscsssscsssssssssssssssssss" /></g><path
       style="fill:none;fill-rule:evenodd;stroke:#000000;stroke-width:0.264583px;stroke-linecap:butt;stroke-linejoin:miter;stroke-opacity:1"
       d="m 247.74815,140.14327 -17.77006,23.5213"
       id="path255"
       inkscape:connector-type="polyline"
       inkscape:connector-curvature="0"
       sodipodi:nodetypes="cc" /></g></svg>
